<svg width="40" height="40" viewBox="0 0 40 40" fill="none" xmlns="http://www.w3.org/2000/svg">
  <!-- Background circle -->
  <circle cx="20" cy="20" r="18" fill="#f5e4d9"></circle>
  
  <!-- Phone handset -->
  <path d="M16.2 12.5L14.5 14.2C14.1 14.6 14 15.2 14.1 15.7C14.7 18 16 20.3 17.9 22.2C19.8 24.1 22.1 25.4 24.4 26C24.9 26.1 25.5 26 25.9 25.6L27.6 23.9C28.2 23.3 28.1 22.3 27.4 21.8L25.5 20.5C25 20.1 24.3 20.2 23.9 20.7L23.4 21.3C23.2 21.6 22.8 21.7 22.5 21.6C21.5 21.1 20.5 20.4 19.6 19.5C18.7 18.6 17.9 17.6 17.4 16.6C17.3 16.3 17.4 15.9 17.7 15.7L18.3 15.2C18.8 14.8 18.9 14.1 18.5 13.6L17.2 11.7C16.7 11 15.7 10.9 16.2 12.5Z" fill="none" stroke="#b9a594" stroke-width="2" stroke-linecap="round" stroke-linejoin="round"></path>
</svg>
